<?xml version="1.0" encoding="UTF-8" standalone="no"?>
<!-- Generator: Adobe Illustrator 25.0.1, SVG Export Plug-In . SVG Version: 6.00 Build 0)  -->

<svg
   version="1.0"
   id="katman_1"
   x="0px"
   y="0px"
   viewBox="0 0 1525.4011 217.78845"
   xml:space="preserve"
   sodipodi:docname="Solana logo.svg"
   width="1525.4011"
   height="217.78845"
   inkscape:version="1.3.2 (091e20e, 2023-11-25)"
   xmlns:inkscape="http://www.inkscape.org/namespaces/inkscape"
   xmlns:sodipodi="http://sodipodi.sourceforge.net/DTD/sodipodi-0.dtd"
   xmlns="http://www.w3.org/2000/svg"
   xmlns:svg="http://www.w3.org/2000/svg"><defs
   id="defs11" /><sodipodi:namedview
   id="namedview11"
   pagecolor="#ffffff"
   bordercolor="#000000"
   borderopacity="0.25"
   inkscape:showpageshadow="2"
   inkscape:pageopacity="0.0"
   inkscape:pagecheckerboard="0"
   inkscape:deskcolor="#d1d1d1"
   inkscape:zoom="0.30287115"
   inkscape:cx="424.27283"
   inkscape:cy="107.30636"
   inkscape:window-width="1392"
   inkscape:window-height="1212"
   inkscape:window-x="764"
   inkscape:window-y="86"
   inkscape:window-maximized="0"
   inkscape:current-layer="katman_1" />
<style
   type="text/css"
   id="style1">
	.st0{fill-rule:evenodd;clip-rule:evenodd;fill:#cbcdfa}
	.st1{fill:url(#SVGID_1_);}
	.st2{fill:url(#SVGID_2_);}
	.st3{fill:url(#SVGID_3_);}
</style>
<path
   class="st0"
   d="m 71.572832,128.39422 h 82.499998 c 11.6,0 21,9.5 21,21.1 0,11.6 -9.4,21.1 -21,21.1 H 54.572832 c -1.6,0 -3.1,0.6 -4.2,1.6 l -30,25.9 c -4.6,4 -1.8,11.5 4.2,11.5 H 149.07283 c 0,0 0.1,0 0.1,-0.1 0,-0.1 0.1,-0.1 0.1,-0.1 1.6,0.1 3.1,0.2 4.8,0.2 33,0 59.8,-26.9 59.8,-60.1 0,-31.5 -24.1,-57.4 -54.9,-59.9 0,0 -0.1,0 -0.1,-0.1 0,-0.1 0,-0.1 -0.1,-0.1 H 69.972832 c -11.6,0 -21,-9.5 -21,-21.1 0,-11.7 9.4,-21.1 21,-21.1 h 99.299998 c 1.6,0 3.2,-0.6 4.4,-1.7 l 27.9,-25.9 c 4.4,-4 1.5,-11.4000003 -4.4,-11.4000003 H 71.672832 c 0,0 0,0 0,0 0,0 0,0 0,0 -0.5,0 -1.1,0 -1.6,0 -33,0 -59.8,26.9000003 -59.8,60.1000003 0,33.2 26.8,60.1 59.8,60.1 0.5,0 1,0 1.5,0 z"
   id="path1" />
<path
   class="st0"
   d="m 551.87283,8.0942197 c -3.6,0 -6.5,2.9000003 -6.5,6.6000003 v 188.4 c 0,3.6 2.9,6.6 6.5,6.6 h 151 c 1.8,0 3.5,-0.8 4.8,-2.1 l 18.9,-20.3 c 3.9,-4.2 1,-11 -4.8,-11 h -131.8 c -3.6,0 -6.5,-2.9 -6.5,-6.6 v -155 c 0,-3.6 -2.9,-6.6000003 -6.5,-6.6000003 z"
   id="path2" />
<path
   class="st0"
   d="m 310.07283,8.0942197 c 0,0 0,0 0,0 0,0.1 -0.1,0.1 0,0 -19.3,0.9 -34.8,16.4000003 -35.7,35.7000003 0,0 0,0 0,0 0,0 0,0 0,0 0,0 0,0 0,0 v 126.7 c 0,0 0,0 0,0 0,0 0,0 0,0 0,0.5 0,1.1 0,1.6 0,20.1 15.8,36.5 35.7,37.3 0,0 0,0 0,0 v 0 0 c 0,0 0,0 0,0 h 137 c 0,0 0,0 0,0 v 0 0 0 c 19.8,-0.9 35.7,-17.3 35.7,-37.3 0,-0.5 0,-1.1 0,-1.6 0,0 0,0 0,0 0,0 0,0 0,0 v -126.6 c 0,0 0,0 0,0 0,0 0,0 0,0 -0.8,-19.3 -16.3,-34.9000003 -35.6,-35.7000003 0,0 0,0 0,0 0,0 0,0 0,0 h -137.1 z m 25.5,35.8000003 v 0 0 c 0,0 0,0 0,0 -12.1,0.5 -21.8,10.3 -22.3,22.5 0,0 0,0 0,0 0,0 0,0 0,0 v 79.7 c 0,0 0,0 0,0 0,0 0,0 0,0 0,0.3 0,0.7 0,1 0,12.6 9.9,23 22.3,23.5 0,0 0,0 0,0 v 0 0 0 h 85.9 v 0 0 0 c 0,0 0,0 0,0 12.4,-0.5 22.3,-10.9 22.3,-23.5 0,-0.3 0,-0.7 0,-1 v 0 0 0 c 0,0 0,0 0,0 v -79.7 c 0,0 0,0 0,0 0,0 0,0 0,0 -0.5,-12.2 -10.2,-21.9 -22.3,-22.5 0,0 0,0 0,0 v 0 0 0 z"
   id="path3" />
<path
   class="st0"
   d="m 946.07283,203.09422 c 0,3.6 2.9,6.6 6.5,6.6 h 25.6 c 3.6,0 6.5,-2.9 6.5,-6.6 v -155.9 c 0,0 0,0 0,0 v 0 0 c 0,0 0,0 0,0 0,-0.5 0,-1.1 0,-1.6 0,-20.1 -15.7,-36.5000003 -35.3,-37.3000003 0,0 0,0 0,0 0,0 0,0 0,0 h -131.5 c 0,0 0,0 0,0 0,0 0,0 0,0 -0.5,0 -1.1,0 -1.6,0 -20.4,0 -36.9,16.7000003 -36.9,37.4000003 0,0.5 0,1.1 0,1.6 0,0 0,0 0,0 0,0 0,0 0,0 v 155.9 c 0,3.6 2.9,6.6 6.5,6.6 h 25.6 c 3.6,0 6.5,-2.9 6.5,-6.6 v -64.9 c 0,-3.6 2.9,-6.6 6.5,-6.6 h 115.4 c 3.6,0 6.5,2.9 6.5,6.6 v 64.8 z m -128.4,-107.3 v -32.4 c 0,-12.6 10.1,-22.8 22.5,-22.8 h 83.4 c 12.4,0 22.5,10.2 22.5,22.8 v 32.4 c 0,3.6 -2.9,6.6 -6.5,6.6 h -115.4 c -3.6,0 -6.5,-2.9 -6.5,-6.6 z"
   id="path4" />
<path
   class="st0"
   d="m 1486.5728,209.69422 c -3.6,0 -6.5,-2.9 -6.5,-6.6 v -64.9 c 0,-3.6 -2.9,-6.6 -6.5,-6.6 h -116.7 c -3.6,0 -6.5,2.9 -6.5,6.6 v 64.9 c 0,3.6 -2.9,6.6 -6.5,6.6 h -25.8 c -3.6,0 -6.5,-2.9 -6.5,-6.6 v -155.9 0 0 c 0,0 0,0 0,0 0,0 0,0 0,0 0,-0.5 0,-1.1 0,-1.6 0,-20.6 16.7,-37.4000003 37.3,-37.4000003 0.5,0 1.1,0 1.6,0 0,0 0,0 0,0 0,0 0,0 0,0 h 133 c 0,0 0,0 0,0 0,0 0,0 0,0 19.8,0.9 35.7,17.3000003 35.7,37.3000003 0,0.5 0,1.1 0,1.6 0,0 0,0 0,0 0,0 0,0 0,0 0,0 0,0 0,0 v 155.9 c 0,3.6 -2.9,6.6 -6.5,6.6 h -26.1 z m -136.3,-146.3 v 32.4 c 0,3.6 2.9,6.6 6.5,6.6 h 116.7 c 3.6,0 6.5,-2.9 6.5,-6.6 v -32.4 c 0,-12.6 -10.2,-22.8 -22.7,-22.8 h -84.3 c -12.5,0 -22.7,10.2 -22.7,22.8 z"
   id="path5" />
<path
   class="st0"
   d="m 1080.9728,8.0942197 c 1.9,0 3.7,0.8 4.9,2.3000003 l 114.8,136.9 c 3.9,4.6 11.4,1.8 11.4,-4.3 v -128.3 c 0,-3.6 2.9,-6.6000003 6.5,-6.6000003 h 25.6 c 3.6,0 6.5,2.9000003 6.5,6.6000003 v 188.4 c 0,3.6 -2.9,6.6 -6.5,6.6 h -31.8 c -0.1,0 -0.2,-0.1 -0.2,-0.2 0,-0.1 0,-0.1 -0.1,-0.2 l -116.8,-135.9 c -3.9,-4.6 -11.4,-1.7 -11.4,4.3 v 125.5 c 0,3.6 -2.9,6.6 -6.5,6.6 h -25.8 c -3.6,0 -6.5,-2.9 -6.5,-6.6 v -188.5 c 0,-3.6 2.9,-6.6000003 6.5,-6.6000003 z"
   id="path6" />
<linearGradient
   id="SVGID_1_"
   gradientUnits="userSpaceOnUse"
   x1="807.33313"
   y1="1136.1171"
   x2="519.10712"
   y2="584.04889"
   gradientTransform="matrix(1,0,0,-1,0,1764)">
	<stop
   offset="0"
   style="stop-color:#00FFA3"
   id="stop6" />
	<stop
   offset="1"
   style="stop-color:#DC1FFF"
   id="stop7" />
</linearGradient>

<linearGradient
   id="SVGID_2_"
   gradientUnits="userSpaceOnUse"
   x1="681.30511"
   y1="1201.9143"
   x2="393.0791"
   y2="649.84613"
   gradientTransform="matrix(1,0,0,-1,0,1764)">
	<stop
   offset="0"
   style="stop-color:#00FFA3"
   id="stop8" />
	<stop
   offset="1"
   style="stop-color:#DC1FFF"
   id="stop9" />
</linearGradient>

<linearGradient
   id="SVGID_3_"
   gradientUnits="userSpaceOnUse"
   x1="743.91809"
   y1="1169.2251"
   x2="455.69211"
   y2="617.15692"
   gradientTransform="matrix(1,0,0,-1,0,1764)">
	<stop
   offset="0"
   style="stop-color:#00FFA3"
   id="stop10" />
	<stop
   offset="1"
   style="stop-color:#DC1FFF"
   id="stop11" />
</linearGradient>

</svg>
